<svg xmlns="http://www.w3.org/2000/svg" width="23.333334" height="23.333334" viewBox="0 0 23.333334 23.333334">
  <path d="M 13.333333 23.333334 L 13.333333 0 L 23.333334 0 L 23.333334 23.333334 L 13.333333 23.333334 L 13.333333 23.333334 M 0 23.333334 L 0 0 L 10 0 L 10 23.333334 L 0 23.333334 L 0 23.333334 M 16.666666 20 L 20 20 L 20 3.3333333 L 16.666666 3.3333333 L 16.666666 20 L 16.666666 20 M 3.3333333 20 L 6.6666665 20 L 6.6666665 3.3333333 L 3.3333333 3.3333333 L 3.3333333 20 L 3.3333333 20 M 3.3333333 3.3333333 L 3.3333333 3.3333333 L 3.3333333 20 L 3.3333333 20 L 3.3333333 3.3333333 L 3.3333333 3.3333333 M 16.666666 3.3333333 L 16.666666 3.3333333 L 16.666666 20 L 16.666666 20 L 16.666666 3.3333333 L 16.666666 3.3333333" fill="currentColor" fill-rule="nonzero"/>
</svg>
